<svg width="20" height="22" viewBox="0 0 20 22" fill="none" xmlns="http://www.w3.org/2000/svg">
<path d="M0 0V17.275C0 17.9872 0.284477 18.6702 0.790846 19.1738C1.29722 19.6775 1.984 19.9604 2.70011 19.9604H15.0091C15.7253 19.9604 16.412 19.6775 16.9184 19.1738C17.4248 18.6702 17.7092 17.9872 17.7092 17.275V2.68541C17.7092 1.97319 17.4248 1.29014 16.9184 0.786529C16.412 0.282917 15.7253 0 15.0091 0H4.14249" fill="white"/>
<path opacity="0.5" d="M11.001 7.0654L8.54828 5.90982L6.09553 7.0654V0.902832H11.001V7.0654Z" fill="#FFCC66"/>
<path d="M10.7255 7.97012L8.73266 7.03108C8.68496 7.00883 8.63292 6.99729 8.58023 6.99729C8.52754 6.99729 8.4755 7.00883 8.4278 7.03108L6.43495 7.97012C6.38178 7.99603 6.32284 8.00802 6.26371 8.00499C6.20458 8.00196 6.14721 7.98399 6.097 7.95278C6.04679 7.92157 6.00541 7.87816 5.97676 7.82662C5.94811 7.77509 5.93313 7.71714 5.93325 7.65826V1.90803C5.93325 1.81613 5.96995 1.72798 6.03529 1.663C6.10063 1.59801 6.18925 1.56152 6.28165 1.56152H10.8753C10.9677 1.56152 11.0563 1.59801 11.1217 1.663C11.187 1.72798 11.2237 1.81613 11.2237 1.90803V7.65826C11.2236 7.71667 11.2085 7.7741 11.1801 7.82521C11.1516 7.87631 11.1106 7.91942 11.0609 7.95053C11.0112 7.98165 10.9544 7.99977 10.8957 8.00319C10.8371 8.00662 10.7785 7.99524 10.7255 7.97012Z" stroke="#494949" stroke-width="0.874986" stroke-miterlimit="10"/>
<path d="M1.59909 1.55747V18.3837C1.60231 19.0805 1.88359 19.7474 2.38109 20.238C2.87859 20.7286 3.5516 21.0026 4.25217 20.9998H16.3469C17.0475 21.0026 17.7205 20.7286 18.218 20.238C18.7155 19.7474 18.9968 19.0805 19 18.3837V4.17704C18.9984 3.83213 18.9285 3.4909 18.7943 3.17285C18.6601 2.8548 18.4643 2.56613 18.2179 2.32336C17.9715 2.08059 17.6795 1.88847 17.3585 1.75794C17.0375 1.62742 16.6937 1.56108 16.3469 1.56268L10.4485 1.51416" stroke="#494949" stroke-width="0.874986" stroke-miterlimit="10" stroke-linecap="round"/>
<path d="M6.09553 12.6685H15.1418" stroke="#4D2C19" stroke-width="0.874986" stroke-miterlimit="10" stroke-linecap="round"/>
<path d="M6.09553 14.7476H13.6001" stroke="#4D2C19" stroke-width="0.874986" stroke-miterlimit="10" stroke-linecap="round"/>
<path d="M6.09553 16.8262H11.5097" stroke="#4D2C19" stroke-width="0.874986" stroke-miterlimit="10" stroke-linecap="round"/>
</svg>
